<?xml version="1.0" encoding="utf-8"?>
<!-- Generator: Adobe Illustrator 18.0.0, SVG Export Plug-In . SVG Version: 6.00 Build 0)  -->
<!DOCTYPE svg PUBLIC "-//W3C//DTD SVG 1.1//EN" "http://www.w3.org/Graphics/SVG/1.1/DTD/svg11.dtd">
<svg version="1.1" xmlns="http://www.w3.org/2000/svg" xmlns:xlink="http://www.w3.org/1999/xlink" x="0px" y="0px"
	 viewBox="0 0 124 65.5" enable-background="new 0 0 124 65.5" xml:space="preserve">
<g id="Layer_1">
	<g>
		<line fill="none" stroke="#000000" stroke-miterlimit="10" x1="44.4" y1="51.6" x2="1.8" y2="51.6"/>
		<line fill="none" stroke="#000000" stroke-miterlimit="10" x1="44.4" y1="51.6" x2="35" y2="42.1"/>
	</g>
	<g>
		<line fill="none" stroke="#000000" stroke-miterlimit="10" x1="44.4" y1="35.6" x2="14.2" y2="5.4"/>
		<line fill="none" stroke="#000000" stroke-miterlimit="10" x1="44.4" y1="35.6" x2="44.4" y2="22.3"/>
	</g>
	<g>
		<defs>
			<rect id="SVGID_1_" x="3.6" y="38.3" width="10" height="26.6"/>
		</defs>
		<clipPath id="SVGID_2_">
			<use xlink:href="#SVGID_1_"  overflow="visible"/>
		</clipPath>
		<path clip-path="url(#SVGID_2_)" d="M5.4,41.1c0.5-1.8,1.7-2,2-2c0.6,0,0.9,0.3,0.9,0.8c0,1.2-1.9,1.2-2.4,1.2H5.4 M6,41.3
			c0.3,0,1.2,0,1.8-0.3c0.8-0.4,0.9-1.1,0.9-1.2c0-0.5-0.5-1-1.3-1c-1.3,0-3.1,1.2-3.1,3.2c0,1.2,0.7,2.2,1.9,2.2
			c1.7,0,2.7-1.3,2.7-1.4c0-0.1-0.1-0.2-0.1-0.2c-0.1,0-0.1,0-0.2,0.1c-0.9,1.2-2.2,1.2-2.4,1.2c-0.9,0-1-1-1-1.4
			c0-0.1,0-0.5,0.2-1.2H6z"/>
		<path clip-path="url(#SVGID_2_)" d="M12.1,40.5c0-0.2,0-0.2-0.3-0.2c-0.5,0.5-1.3,0.5-1.6,0.5v0.3c0.2,0,0.8,0,1.2-0.2v4.3
			c0,0.3,0,0.4-0.8,0.4h-0.3v0.3c0.2,0,1.2,0,1.5,0c0.3,0,1.3,0,1.5,0v-0.3h-0.3c-0.8,0-0.8-0.1-0.8-0.4V40.5"/>
		<path clip-path="url(#SVGID_2_)" d="M7.8,57.2h1c0.2,0,0.4,0,0.4-0.2c0-0.1-0.1-0.1-0.3-0.1h-1l0.2-1.4c0-0.3,0.2-1.1,0.3-1.2
			C8.6,54,8.8,53.8,9,53.8c0,0,0.4,0,0.6,0.2c-0.5,0-0.6,0.5-0.6,0.6c0,0.3,0.2,0.4,0.4,0.4c0.3,0,0.7-0.3,0.7-0.7
			c0-0.5-0.5-0.8-1-0.8c-0.4,0-1.2,0.2-1.5,1.4c-0.1,0.2-0.1,0.4-0.4,1.9H6.3c-0.2,0-0.4,0-0.4,0.2c0,0.1,0.1,0.1,0.3,0.1H7
			l-0.9,4.7c-0.2,1.2-0.4,2.2-1,2.2c0,0-0.3,0-0.6-0.2c0.5,0,0.7-0.5,0.7-0.6c0-0.3-0.2-0.4-0.4-0.4c-0.3,0-0.7,0.3-0.7,0.7
			c0,0.5,0.5,0.8,1,0.8c0.7,0,1.1-0.7,1.3-1.2c0.4-0.8,0.7-2.2,0.7-2.3L7.8,57.2"/>
		<path clip-path="url(#SVGID_2_)" d="M12.1,58.4c0-0.2,0-0.2-0.3-0.2c-0.5,0.5-1.3,0.5-1.6,0.5V59c0.2,0,0.8,0,1.2-0.2v4.3
			c0,0.3,0,0.4-0.8,0.4h-0.3v0.3c0.2,0,1.2,0,1.5,0c0.3,0,1.3,0,1.5,0v-0.3h-0.3c-0.8,0-0.8-0.1-0.8-0.4V58.4"/>
	</g>
	<g>
		<g>
			<path d="M23.6,6.9c0.5-1.8,1.7-2,2-2c0.6,0,0.9,0.3,0.9,0.8c0,1.2-1.9,1.2-2.4,1.2H23.6 M24.1,7.2c0.3,0,1.2,0,1.8-0.3
				c0.8-0.4,0.9-1.1,0.9-1.2c0-0.5-0.5-1-1.3-1c-1.3,0-3.1,1.2-3.1,3.2c0,1.2,0.7,2.2,1.9,2.2c1.7,0,2.7-1.3,2.7-1.4
				c0-0.1-0.1-0.2-0.1-0.2c-0.1,0-0.1,0-0.2,0.1c-0.9,1.2-2.2,1.2-2.4,1.2c-0.9,0-1-1-1-1.4c0-0.1,0-0.5,0.2-1.2H24.1z"/>
			<path d="M31.6,10.2h-0.3c0,0.2-0.1,0.7-0.2,0.8C31.1,11,30.4,11,30.3,11h-1.5c0.9-0.8,1.2-1,1.7-1.4c0.6-0.5,1.2-1,1.2-1.8
				c0-1-0.9-1.6-2-1.6c-1,0-1.7,0.7-1.7,1.5c0,0.4,0.4,0.5,0.4,0.5c0.2,0,0.4-0.1,0.4-0.4c0-0.2-0.1-0.4-0.5-0.4
				c0.3-0.6,0.8-0.8,1.2-0.8c0.8,0,1.3,0.7,1.3,1.3c0,0.7-0.5,1.3-0.8,1.6l-2,2c-0.1,0.1-0.1,0.1-0.1,0.3h3.5L31.6,10.2"/>
		</g>
		<path d="M16.3,16.4h1c0.2,0,0.4,0,0.4-0.2c0-0.1-0.1-0.1-0.3-0.1h-1l0.2-1.4c0-0.3,0.2-1.1,0.3-1.2c0.1-0.2,0.3-0.4,0.6-0.4
			c0,0,0.4,0,0.6,0.2c-0.5,0-0.6,0.5-0.6,0.6c0,0.3,0.2,0.4,0.4,0.4c0.3,0,0.7-0.3,0.7-0.7c0-0.5-0.5-0.8-1-0.8
			c-0.4,0-1.2,0.2-1.5,1.4c-0.1,0.2-0.1,0.4-0.4,1.9h-0.8c-0.2,0-0.4,0-0.4,0.2c0,0.1,0.1,0.1,0.3,0.1h0.8l-0.9,4.7
			c-0.2,1.2-0.4,2.2-1,2.2c0,0-0.3,0-0.6-0.2c0.5,0,0.7-0.5,0.7-0.6c0-0.3-0.2-0.4-0.4-0.4c-0.3,0-0.7,0.3-0.7,0.7
			c0,0.5,0.5,0.8,1,0.8c0.7,0,1.1-0.7,1.3-1.2c0.4-0.8,0.7-2.2,0.7-2.3L16.3,16.4"/>
		<path d="M22,21.4h-0.3c0,0.2-0.1,0.7-0.2,0.8c-0.1,0.1-0.7,0.1-0.8,0.1h-1.5c0.9-0.8,1.2-1,1.7-1.4c0.6-0.5,1.2-1,1.2-1.8
			c0-1-0.9-1.6-2-1.6c-1,0-1.7,0.7-1.7,1.5c0,0.4,0.4,0.5,0.4,0.5c0.2,0,0.4-0.1,0.4-0.4c0-0.2-0.1-0.4-0.5-0.4
			c0.3-0.6,0.8-0.8,1.2-0.8c0.8,0,1.3,0.7,1.3,1.3c0,0.7-0.5,1.3-0.8,1.6l-2,2c-0.1,0.1-0.1,0.1-0.1,0.3h3.5L22,21.4"/>
	</g>
	<g>
		<line fill="none" stroke="#000000" stroke-miterlimit="10" x1="78.3" y1="51.6" x2="121" y2="51.6"/>
		<line fill="none" stroke="#000000" stroke-miterlimit="10" x1="78.3" y1="51.6" x2="87.7" y2="61"/>
	</g>
	<g>
		<line fill="none" stroke="#000000" stroke-miterlimit="10" x1="77.5" y1="36.4" x2="107.7" y2="6.2"/>
		<line fill="none" stroke="#000000" stroke-miterlimit="10" x1="77.5" y1="36.4" x2="90.9" y2="36.4"/>
	</g>
	<g>
		<defs>
			<rect id="SVGID_3_" x="53" y="14.4" width="18" height="3"/>
		</defs>
		<clipPath id="SVGID_4_">
			<use xlink:href="#SVGID_3_"  overflow="visible"/>
		</clipPath>
		<path clip-path="url(#SVGID_4_)" d="M55,15.9c0-0.5-0.4-0.9-0.9-0.9c-0.5,0-0.9,0.4-0.9,0.9c0,0.5,0.4,0.9,0.9,0.9
			C54.6,16.8,55,16.4,55,15.9"/>
		<path clip-path="url(#SVGID_4_)" d="M63,15.9c0-0.5-0.4-0.9-0.9-0.9c-0.5,0-0.9,0.4-0.9,0.9c0,0.5,0.4,0.9,0.9,0.9
			C62.6,16.8,63,16.4,63,15.9"/>
		<path clip-path="url(#SVGID_4_)" d="M70.9,15.9c0-0.5-0.4-0.9-0.9-0.9c-0.5,0-0.9,0.4-0.9,0.9c0,0.5,0.4,0.9,0.9,0.9
			C70.5,16.8,70.9,16.4,70.9,15.9"/>
	</g>
	<g>
		<defs>
			<rect id="SVGID_5_" x="111" y="37.7" width="10" height="27.8"/>
		</defs>
		<clipPath id="SVGID_6_">
			<use xlink:href="#SVGID_5_"  overflow="visible"/>
		</clipPath>
		<path clip-path="url(#SVGID_6_)" d="M112.9,40.5c0.5-1.8,1.7-2,2-2c0.6,0,0.9,0.3,0.9,0.8c0,1.2-1.9,1.2-2.4,1.2H112.9
			 M113.5,40.7c0.3,0,1.2,0,1.8-0.3c0.8-0.4,0.9-1.1,0.9-1.2c0-0.5-0.5-1-1.3-1c-1.3,0-3.1,1.2-3.1,3.2c0,1.2,0.7,2.2,1.9,2.2
			c1.7,0,2.7-1.3,2.7-1.4c0-0.1-0.1-0.2-0.1-0.2c-0.1,0-0.1,0-0.2,0.1c-0.9,1.2-2.2,1.2-2.4,1.2c-0.9,0-1-1-1-1.4
			c0-0.1,0-0.5,0.2-1.2H113.5z"/>
		<path clip-path="url(#SVGID_6_)" d="M118.8,45.7c-0.1,0.6-0.6,1.1-1.1,1.1c-0.1,0-0.2,0-0.3,0c0.2-0.1,0.3-0.3,0.3-0.4
			c0-0.2-0.2-0.3-0.3-0.3c-0.3,0-0.5,0.2-0.5,0.5c0,0.3,0.3,0.5,0.8,0.5c0.5,0,1.5-0.3,1.7-1.3l0.8-3c0-0.1,0-0.2,0-0.3
			c0-0.5-0.4-0.8-0.9-0.8c-0.9,0-1.5,1.2-1.5,1.3c0,0.1,0.1,0.1,0.1,0.1c0.1,0,0.1,0,0.2-0.2c0.2-0.5,0.6-1,1.1-1
			c0.2,0,0.3,0.1,0.3,0.4c0,0.1,0,0.2,0,0.3L118.8,45.7 M120.5,40c0-0.1-0.1-0.3-0.3-0.3c-0.2,0-0.5,0.2-0.5,0.5
			c0,0.1,0.1,0.3,0.3,0.3C120.3,40.5,120.5,40.3,120.5,40z"/>
		<path clip-path="url(#SVGID_6_)" d="M115.3,56.6h1c0.2,0,0.4,0,0.4-0.2c0-0.1-0.1-0.1-0.3-0.1h-1l0.2-1.4c0-0.2,0.2-1.1,0.3-1.2
			c0.1-0.2,0.3-0.4,0.6-0.4c0,0,0.4,0,0.6,0.2c-0.5,0-0.6,0.5-0.6,0.6c0,0.3,0.2,0.4,0.4,0.4c0.3,0,0.7-0.3,0.7-0.7
			c0-0.5-0.5-0.8-1-0.8c-0.4,0-1.2,0.2-1.5,1.4c-0.1,0.2-0.1,0.4-0.4,1.9h-0.8c-0.2,0-0.4,0-0.4,0.2c0,0.1,0.1,0.1,0.3,0.1h0.8
			l-0.9,4.7c-0.2,1.2-0.4,2.2-1,2.2c0,0-0.3,0-0.6-0.2c0.5,0,0.7-0.5,0.7-0.6c0-0.3-0.2-0.4-0.4-0.4c-0.3,0-0.7,0.3-0.7,0.7
			c0,0.5,0.5,0.8,1,0.8c0.7,0,1.1-0.7,1.3-1.2c0.4-0.8,0.7-2.2,0.7-2.3L115.3,56.6"/>
		<path clip-path="url(#SVGID_6_)" d="M118.8,63.6c-0.1,0.6-0.6,1.1-1.1,1.1c-0.1,0-0.2,0-0.3-0.1c0.2-0.1,0.3-0.3,0.3-0.4
			c0-0.2-0.2-0.3-0.3-0.3c-0.3,0-0.5,0.2-0.5,0.5c0,0.3,0.3,0.5,0.8,0.5c0.5,0,1.5-0.3,1.7-1.3l0.8-3c0-0.1,0-0.2,0-0.3
			c0-0.5-0.4-0.8-0.9-0.8c-0.9,0-1.5,1.2-1.5,1.3c0,0.1,0.1,0.1,0.1,0.1c0.1,0,0.1,0,0.2-0.2c0.2-0.5,0.6-1,1.1-1
			c0.2,0,0.3,0.1,0.3,0.4c0,0.1,0,0.2,0,0.3L118.8,63.6 M120.5,57.9c0-0.1-0.1-0.3-0.3-0.3c-0.2,0-0.5,0.2-0.5,0.5
			c0,0.1,0.1,0.3,0.3,0.3C120.3,58.4,120.5,58.2,120.5,57.9z"/>
	</g>
</g>
<g id="Components">
	<g id="Phi">
		<defs>
			<rect id="SVGID_7_" x="51" y="39.1" width="22" height="25"/>
		</defs>
		<clipPath id="SVGID_8_">
			<use xlink:href="#SVGID_7_"  overflow="visible"/>
		</clipPath>
		<path clip-path="url(#SVGID_8_)" d="M63.3,44.8c5,0.6,6,3.9,6,6.6c0,2.2-0.5,6-6,6.6V44.8 M60.3,58c-5.1-0.7-5.7-4.3-5.7-6.6
			c0-1.9,0.4-5.9,5.7-6.6V58z M63.3,58.8c5.6-0.4,9.6-3.8,9.6-7.4c0-3.7-4.1-7-9.6-7.4v-2c0-1.2,0-1.7,3.4-1.7h1.2v-1.1
			c-1.3,0.1-4.6,0.1-6.1,0.1c-1.5,0-4.8,0-6.1-0.1v1.1h1.2c3.4,0,3.4,0.5,3.4,1.7v2c-5.5,0.5-9.3,3.8-9.3,7.4c0,3.7,4,6.9,9.3,7.4v2
			c0,1.2,0,1.7-3.4,1.7h-1.2v1.1c1.3-0.1,4.6-0.1,6.1-0.1c1.5,0,4.8,0,6.1,0.1v-1.1h-1.2c-3.4,0-3.4-0.5-3.4-1.7V58.8z"/>
	</g>
	<g id="Layer_3" display="none">
		<text transform="matrix(1 0 0 1 54.6259 58.7543)" display="inline" font-family="'MyriadPro-Regular'" font-size="24">1</text>
	</g>
	<g id="_x30_" display="none">
		<text transform="matrix(1 0 0 1 55.5557 59.0642)" display="inline" font-family="'MyriadPro-Regular'" font-size="24">0</text>
	</g>
</g>
</svg>
