<?xml version="1.0" encoding="utf-8"?>
<!-- Generator: Adobe Illustrator 18.0.0, SVG Export Plug-In . SVG Version: 6.00 Build 0)  -->
<!DOCTYPE svg PUBLIC "-//W3C//DTD SVG 1.1//EN" "http://www.w3.org/Graphics/SVG/1.1/DTD/svg11.dtd">
<svg version="1.1" xmlns="http://www.w3.org/2000/svg" xmlns:xlink="http://www.w3.org/1999/xlink" x="0px" y="0px"
	 viewBox="0 0 88.9 36.5" enable-background="new 0 0 88.9 36.5" xml:space="preserve">
<g id="Layer_1">
	<g>
		<line fill="none" stroke="#000000" stroke-miterlimit="10" x1="45.6" y1="18.1" x2="2.9" y2="18.1"/>
		<line fill="none" stroke="#000000" stroke-miterlimit="10" x1="45.6" y1="18.1" x2="36.2" y2="8.6"/>
	</g>
	<g>
		<path d="M18.6,9.5c0.5-1.8,1.7-2,2-2c0.6,0,0.9,0.3,0.9,0.8c0,1.2-1.9,1.2-2.4,1.2H18.6 M19.2,9.8c0.3,0,1.2,0,1.8-0.3
			c0.8-0.4,0.9-1.1,0.9-1.2c0-0.5-0.5-1-1.3-1c-1.3,0-3.1,1.2-3.1,3.2c0,1.2,0.7,2.2,1.9,2.2c1.7,0,2.7-1.3,2.7-1.4
			c0-0.1-0.1-0.2-0.1-0.2c-0.1,0-0.1,0-0.2,0.1c-0.9,1.2-2.2,1.2-2.4,1.2c-0.9,0-1-1-1-1.4c0-0.1,0-0.5,0.2-1.2H19.2z"/>
		<path d="M21,25.7h1c0.2,0,0.4,0,0.4-0.2c0-0.1-0.1-0.1-0.3-0.1h-1l0.2-1.4c0-0.3,0.2-1.1,0.3-1.2c0.1-0.2,0.3-0.4,0.6-0.4
			c0,0,0.4,0,0.6,0.2c-0.5,0-0.6,0.5-0.6,0.6c0,0.3,0.2,0.4,0.4,0.4c0.3,0,0.7-0.3,0.7-0.7c0-0.5-0.5-0.8-1-0.8
			c-0.4,0-1.2,0.2-1.5,1.4c-0.1,0.2-0.1,0.4-0.4,1.9h-0.8c-0.2,0-0.4,0-0.4,0.2c0,0.1,0.1,0.1,0.3,0.1h0.8l-0.9,4.7
			c-0.2,1.2-0.4,2.2-1,2.2c0,0-0.3,0-0.6-0.2c0.5,0,0.7-0.5,0.7-0.6c0-0.3-0.2-0.4-0.4-0.4c-0.3,0-0.7,0.3-0.7,0.7
			c0,0.5,0.5,0.8,1,0.8c0.7,0,1.1-0.7,1.3-1.2c0.4-0.8,0.7-2.2,0.7-2.3L21,25.7"/>
	</g>
</g>
<g id="Components">
	<g id="Phi" display="none">
		<defs>
			<rect id="SVGID_1_" x="53.3" y="5.6" width="22" height="25"/>
		</defs>
		<clipPath id="SVGID_2_" display="inline">
			<use xlink:href="#SVGID_1_"  overflow="visible"/>
		</clipPath>
		<path display="inline" clip-path="url(#SVGID_2_)" d="M65.6,11.3c5,0.6,6,3.9,6,6.6c0,2.2-0.5,6-6,6.6V11.3 M62.6,24.5
			c-5.1-0.7-5.7-4.3-5.7-6.6c0-1.9,0.4-5.9,5.7-6.6V24.5z M65.6,25.3c5.6-0.4,9.6-3.8,9.6-7.4c0-3.7-4.1-7-9.6-7.4v-2
			c0-1.2,0-1.7,3.4-1.7h1.2V5.7c-1.3,0.1-4.6,0.1-6.1,0.1c-1.5,0-4.8,0-6.1-0.1v1.1h1.2c3.4,0,3.4,0.5,3.4,1.7v2
			c-5.5,0.5-9.3,3.8-9.3,7.4c0,3.7,4,6.9,9.3,7.4v2c0,1.2,0,1.7-3.4,1.7H58v1.1c1.3-0.1,4.6-0.1,6.1-0.1c1.5,0,4.8,0,6.1,0.1v-1.1
			H69c-3.4,0-3.4-0.5-3.4-1.7V25.3z"/>
	</g>
	<g id="Inductor" display="none">
		<text transform="matrix(1 0 0 1 56.1408 25.4384)" display="inline" font-family="'MyriadPro-Regular'" font-size="24">L</text>
	</g>
	<g id="Capacitor" display="none">
		<text transform="matrix(1 0 0 1 54.0941 25.4384)" display="inline" font-family="'MyriadPro-Regular'" font-size="24">C</text>
	</g>
	<g id="Resistor" display="none">
		<text transform="matrix(1 0 0 1 55.2634 25.4386)" display="inline" font-family="'MyriadPro-Regular'" font-size="24">R</text>
	</g>
	<g id="Effort_Source" display="none">
		<text transform="matrix(1 0 0 1 54.0934 26.0232)" display="inline" font-family="'MyriadPro-Regular'" font-size="24">Se</text>
	</g>
	<g id="Flow_Source">
		<text transform="matrix(1 0 0 1 54.2924 25.0237)" font-family="'MyriadPro-Regular'" font-size="24">Sf</text>
	</g>
</g>
</svg>
