<?xml version="1.0" encoding="utf-8"?>
<!-- Generator: Adobe Illustrator 18.0.0, SVG Export Plug-In . SVG Version: 6.00 Build 0)  -->
<!DOCTYPE svg PUBLIC "-//W3C//DTD SVG 1.1//EN" "http://www.w3.org/Graphics/SVG/1.1/DTD/svg11.dtd">
<svg version="1.1" id="Layer_1" xmlns="http://www.w3.org/2000/svg" xmlns:xlink="http://www.w3.org/1999/xlink" x="0px" y="0px"
	 viewBox="0 39.2 226.8 92.1" enable-background="new 0 39.2 226.8 92.1" xml:space="preserve">
<text transform="matrix(1 0 0 1 78.2346 63.2321)" font-family="'ArialMT'" font-size="18.3496">A</text>
<text transform="matrix(1 0 0 1 78.2346 121.7653)" font-family="'ArialMT'" font-size="18.3496">C</text>
<text transform="matrix(1 0 0 1 143.3447 121.7653)" font-family="'ArialMT'" font-size="18.3496">D</text>
<text transform="matrix(1 0 0 1 10.826 121.7653)" font-family="'ArialMT'" font-size="18.3496">B</text>
<circle fill="none" stroke="#000000" stroke-miterlimit="10" cx="84.1" cy="57.1" r="12.2"/>
<circle fill="none" stroke="#000000" stroke-miterlimit="10" cx="15.3" cy="114.6" r="12.2"/>
<circle fill="none" stroke="#000000" stroke-miterlimit="10" cx="84.1" cy="114.6" r="12.2"/>
<circle fill="none" stroke="#000000" stroke-miterlimit="10" cx="148" cy="114.6" r="12.2"/>
<line fill="none" stroke="#000000" stroke-miterlimit="10" x1="27.5" y1="114.6" x2="71.9" y2="114.6"/>
<line fill="none" stroke="#000000" stroke-miterlimit="10" x1="84.1" y1="69.5" x2="84.1" y2="102.4"/>
<line fill="none" stroke="#000000" stroke-miterlimit="10" x1="96.5" y1="114.6" x2="135.8" y2="114.6"/>
<text transform="matrix(1 0 0 1 205.6853 121.7653)" font-family="'ArialMT'" font-size="18.3496">E</text>
<circle fill="none" stroke="#000000" stroke-miterlimit="10" cx="211.9" cy="114.6" r="12.2"/>
<line fill="none" stroke="#000000" stroke-miterlimit="10" x1="160.3" y1="114.6" x2="199.7" y2="114.6"/>
<rect x="149.7" y="38.8" opacity="0.3" fill="#E41E25" enable-background="new    " width="77.1" height="92.5"/>
<text transform="matrix(1 0 0 1 157.8027 51.6747)" font-family="'ArialMT'" font-size="12.233">Thermal </text>
<text transform="matrix(1 0 0 1 157.8027 66.3541)" font-family="'ArialMT'" font-size="12.233">Enviroment</text>
<rect y="39.2" opacity="0.3" fill="#2D409A" enable-background="new    " width="149.7" height="38.1"/>
<text transform="matrix(1 0 0 1 3.0417 51.6747)" font-family="'ArialMT'" font-size="12.233">External</text>
<text transform="matrix(1 0 0 1 3.0417 66.3541)" font-family="'ArialMT'" font-size="12.233">Energy</text>
<text transform="matrix(1 0 0 1 3.0417 91.236)" font-family="'ArialMT'" font-size="12.233">Model</text>
</svg>
