<?xml version="1.0" encoding="utf-8"?>
<!-- Generator: Adobe Illustrator 18.0.0, SVG Export Plug-In . SVG Version: 6.00 Build 0)  -->
<!DOCTYPE svg PUBLIC "-//W3C//DTD SVG 1.1//EN" "http://www.w3.org/Graphics/SVG/1.1/DTD/svg11.dtd">
<svg version="1.1" id="Layer_1" xmlns="http://www.w3.org/2000/svg" xmlns:xlink="http://www.w3.org/1999/xlink" x="0px" y="0px"
	 viewBox="0 57.1 166 112.9" enable-background="new 0 57.1 166 112.9" xml:space="preserve">
<text transform="matrix(1 0 0 1 78.2346 121.7653)" font-family="'ArialMT'" font-size="18.3496">C</text>
<text transform="matrix(1 0 0 1 143.3447 121.7653)" font-family="'ArialMT'" font-size="18.3496">D</text>
<text transform="matrix(1 0 0 1 10.826 121.7653)" font-family="'ArialMT'" font-size="18.3496">B</text>
<circle fill="none" stroke="#000000" stroke-miterlimit="10" cx="84.1" cy="57.1" r="12.2"/>
<circle fill="none" stroke="#000000" stroke-miterlimit="10" cx="15.3" cy="114.6" r="12.2"/>
<circle fill="none" stroke="#000000" stroke-miterlimit="10" cx="84.1" cy="114.6" r="12.2"/>
<circle fill="none" stroke="#000000" stroke-miterlimit="10" cx="148" cy="114.6" r="12.2"/>
<line fill="none" stroke="#000000" stroke-miterlimit="10" x1="27.5" y1="114.6" x2="71.9" y2="114.6"/>
<line fill="none" stroke="#000000" stroke-miterlimit="10" x1="84.1" y1="69.5" x2="84.1" y2="102.4"/>
<line fill="none" stroke="#000000" stroke-miterlimit="10" x1="96.5" y1="114.6" x2="135.8" y2="114.6"/>
<text transform="matrix(1 0 0 1 35.1909 109.4885)" font-family="'MyriadPro-Regular'" font-size="10">e</text>
<text transform="matrix(1 0 0 1 35.1908 124.9083)" font-family="'MyriadPro-Regular'" font-size="10">f</text>
<line fill="none" stroke="#000000" stroke-miterlimit="10" x1="35.2" y1="104.3" x2="27.5" y2="114.6"/>
<line fill="none" stroke="#000000" stroke-miterlimit="10" x1="35.2" y1="124.9" x2="27.5" y2="114.6"/>
<line fill="none" stroke="#000000" stroke-miterlimit="10" x1="104.2" y1="104.3" x2="96.5" y2="114.6"/>
<line fill="none" stroke="#000000" stroke-miterlimit="10" x1="104.2" y1="124.9" x2="96.5" y2="114.6"/>
<g>
	<line fill="none" stroke="#000000" stroke-miterlimit="10" x1="73.8" y1="94.7" x2="84.1" y2="102.4"/>
	<line fill="none" stroke="#000000" stroke-miterlimit="10" x1="94.4" y1="94.7" x2="84.1" y2="102.4"/>
</g>
<g>
	<line fill="none" stroke="#000000" stroke-miterlimit="10" x1="64.2" y1="124.9" x2="71.9" y2="114.6"/>
	<line fill="none" stroke="#000000" stroke-miterlimit="10" x1="64.2" y1="104.3" x2="71.9" y2="114.6"/>
</g>
<g>
	<line fill="none" stroke="#000000" stroke-miterlimit="10" x1="128.1" y1="124.9" x2="135.8" y2="114.6"/>
	<line fill="none" stroke="#000000" stroke-miterlimit="10" x1="128.1" y1="104.3" x2="135.8" y2="114.6"/>
</g>
<text transform="matrix(1 0 0 1 58.8575 109.4884)" font-family="'MyriadPro-Regular'" font-size="10">e</text>
<text transform="matrix(1 0 0 1 58.8575 124.9081)" font-family="'MyriadPro-Regular'" font-size="10">f</text>
<text transform="matrix(1 0 0 1 104.1547 109.4882)" font-family="'MyriadPro-Regular'" font-size="10">e</text>
<text transform="matrix(1 0 0 1 104.1547 124.908)" font-family="'MyriadPro-Regular'" font-size="10">f</text>
<text transform="matrix(1 0 0 1 122.5242 109.4885)" font-family="'MyriadPro-Regular'" font-size="10">e</text>
<text transform="matrix(1 0 0 1 122.5242 124.9083)" font-family="'MyriadPro-Regular'" font-size="10">f</text>
<text transform="matrix(1 0 0 1 73.8221 92.4885)" font-family="'MyriadPro-Regular'" font-size="10">e</text>
<text transform="matrix(1 0 0 1 91.822 92.4885)" font-family="'MyriadPro-Regular'" font-size="10">f</text>
<text transform="matrix(1 0 0 1 37.6668 126.8617)" font-family="'MyriadPro-Regular'" font-size="6">1</text>
<text transform="matrix(1 0 0 1 39.6667 111.4133)" font-family="'MyriadPro-Regular'" font-size="6">1</text>
<text transform="matrix(1 0 0 1 62.6668 111.4138)" font-family="'MyriadPro-Regular'" font-size="6">2</text>
<text transform="matrix(1 0 0 1 61.6668 126.8615)" font-family="'MyriadPro-Regular'" font-size="6">2</text>
<text transform="matrix(1 0 0 1 107.0002 126.8615)" font-family="'MyriadPro-Regular'" font-size="6">3</text>
<text transform="matrix(1 0 0 1 108.6668 111.4136)" font-family="'MyriadPro-Regular'" font-size="6">3</text>
<text transform="matrix(1 0 0 1 126.6668 111.4136)" font-family="'MyriadPro-Regular'" font-size="6">4</text>
<text transform="matrix(1 0 0 1 124.6668 126.8615)" font-family="'MyriadPro-Regular'" font-size="6">4</text>
<text transform="matrix(1 0 0 1 78.2344 94.7288)" font-family="'MyriadPro-Regular'" font-size="6">5</text>
<text transform="matrix(1 0 0 1 94.3822 94.7289)" font-family="'MyriadPro-Regular'" font-size="6">5</text>
</svg>
