<?xml version="1.0" encoding="utf-8"?>
<!-- Generator: Adobe Illustrator 18.0.0, SVG Export Plug-In . SVG Version: 6.00 Build 0)  -->
<!DOCTYPE svg PUBLIC "-//W3C//DTD SVG 1.1//EN" "http://www.w3.org/Graphics/SVG/1.1/DTD/svg11.dtd">
<svg version="1.1" id="Layer_1" xmlns="http://www.w3.org/2000/svg" xmlns:xlink="http://www.w3.org/1999/xlink" x="0px" y="0px"
	 viewBox="0 0 64.5 72.7" enable-background="new 0 0 64.5 72.7" xml:space="preserve">
<text transform="matrix(1 0 0 1 26.5694 40.6804)" font-family="'MyriadPro-Regular'" font-size="12">1</text>
<text transform="matrix(1 0 0 1 25.9855 10.6565)" font-family="'MyriadPro-Regular'" font-size="12">C</text>
<text transform="matrix(1 0 0 1 56.3503 40.6802)" font-family="'MyriadPro-Regular'" font-size="12">R</text>
<text transform="matrix(1 0 0 1 28.5403 68.0294)" font-family="'MyriadPro-Regular'" font-size="12">L</text>
<g>
	<line stroke="#000000" stroke-width="0.5" stroke-miterlimit="10" x1="37.4" y1="36.9" x2="52.8" y2="36.9"/>
	<line stroke="#000000" stroke-width="0.5" stroke-miterlimit="10" x1="52.8" y1="36.9" x2="48.2" y2="31.9"/>
</g>
<g>
	<line stroke="#000000" stroke-width="0.5" stroke-miterlimit="10" x1="29.8" y1="30.9" x2="29.8" y2="14.6"/>
	<line stroke="#000000" stroke-width="0.5" stroke-miterlimit="10" x1="29.8" y1="14.6" x2="24.8" y2="19.4"/>
</g>
<g>
	<line stroke="#000000" stroke-width="0.5" stroke-miterlimit="10" x1="29.8" y1="42.8" x2="29.8" y2="58.1"/>
	<line stroke="#000000" stroke-width="0.5" stroke-miterlimit="10" x1="29.8" y1="58.1" x2="34.7" y2="53.5"/>
</g>
<g>
	<line stroke="#000000" stroke-width="0.5" stroke-miterlimit="10" x1="2.1" y1="36.9" x2="22" y2="36.9"/>
	<line stroke="#000000" stroke-width="0.5" stroke-miterlimit="10" x1="22" y1="36.9" x2="16.1" y2="31.9"/>
</g>
<g>
	<defs>
		<rect id="SVGID_1_" x="3" y="30" width="7" height="13.8"/>
	</defs>
	<clipPath id="SVGID_2_">
		<use xlink:href="#SVGID_1_"  overflow="visible"/>
	</clipPath>
	<path clip-path="url(#SVGID_2_)" d="M3.8,31.9c0.2-0.9,0.8-1,1-1c0.3,0,0.4,0.2,0.4,0.4c0,0.6-1,0.6-1.2,0.6H3.8 M4.1,32
		c0.2,0,0.6,0,0.9-0.1c0.4-0.2,0.4-0.5,0.4-0.6c0-0.3-0.2-0.5-0.6-0.5c-0.7,0-1.6,0.6-1.6,1.6c0,0.6,0.4,1.1,0.9,1.1
		c0.9,0,1.4-0.6,1.4-0.7c0,0,0-0.1-0.1-0.1c0,0,0,0-0.1,0.1c-0.5,0.6-1.1,0.6-1.2,0.6c-0.5,0-0.5-0.5-0.5-0.7c0-0.1,0-0.3,0.1-0.6
		H4.1z"/>
	<path clip-path="url(#SVGID_2_)" d="M5.9,32.5v0.2c0.3,0,0.3,0,0.3,0.2V34c0,0.2,0,0.2-0.3,0.2v0.1c0,0,0.3,0,0.5,0
		c0.1,0,0.3,0,0.4,0v-0.1c-0.2,0-0.3,0-0.3-0.2v-1.5L5.9,32.5 M6.5,31.8c0-0.1-0.1-0.2-0.2-0.2c-0.1,0-0.2,0.1-0.2,0.2
		C6,31.9,6.2,32,6.3,32C6.4,32,6.5,31.9,6.5,31.8z"/>
	<path clip-path="url(#SVGID_2_)" d="M9.2,33.1c0-0.4-0.2-0.6-0.6-0.6c-0.3,0-0.6,0.2-0.7,0.4h0v-0.4l-0.6,0v0.2
		c0.3,0,0.3,0,0.3,0.2V34c0,0.2,0,0.2-0.3,0.2v0.1c0,0,0.3,0,0.5,0c0.2,0,0.4,0,0.5,0v-0.1c-0.3,0-0.3,0-0.3-0.2v-0.7
		c0-0.4,0.3-0.6,0.6-0.6c0.3,0,0.3,0.2,0.3,0.4V34c0,0.2,0,0.2-0.3,0.2v0.1c0,0,0.3,0,0.5,0c0.2,0,0.4,0,0.5,0v-0.1
		c-0.3,0-0.3,0-0.3-0.2V33.1"/>
	<path clip-path="url(#SVGID_2_)" d="M4.9,40h0.5c0.1,0,0.2,0,0.2-0.1c0-0.1-0.1-0.1-0.2-0.1H5l0.1-0.7c0-0.1,0.1-0.5,0.1-0.6
		c0.1-0.1,0.2-0.2,0.3-0.2c0,0,0.2,0,0.3,0.1c-0.3,0-0.3,0.2-0.3,0.3c0,0.1,0.1,0.2,0.2,0.2C5.9,39,6,38.8,6,38.6
		c0-0.3-0.3-0.4-0.5-0.4c-0.2,0-0.6,0.1-0.8,0.7c0,0.1-0.1,0.2-0.2,0.9H4.2C4,39.8,4,39.8,4,40C4,40,4,40,4.1,40h0.4l-0.4,2.4
		C4,43,3.9,43.5,3.6,43.5c0,0-0.2,0-0.3-0.1c0.3,0,0.3-0.2,0.3-0.3c0-0.1-0.1-0.2-0.2-0.2c-0.2,0-0.3,0.1-0.3,0.4
		c0,0.3,0.3,0.4,0.5,0.4c0.3,0,0.6-0.4,0.7-0.6c0.2-0.4,0.3-1.1,0.3-1.1L4.9,40"/>
	<path clip-path="url(#SVGID_2_)" d="M5.9,41.5v0.2c0.3,0,0.3,0,0.3,0.2V43c0,0.2,0,0.2-0.3,0.2v0.1c0,0,0.3,0,0.5,0
		c0.1,0,0.3,0,0.4,0v-0.1c-0.2,0-0.3,0-0.3-0.2v-1.5L5.9,41.5 M6.5,40.8c0-0.1-0.1-0.2-0.2-0.2c-0.1,0-0.2,0.1-0.2,0.2
		C6,40.9,6.2,41,6.3,41C6.4,41,6.5,40.9,6.5,40.8z"/>
	<path clip-path="url(#SVGID_2_)" d="M9.2,42.1c0-0.4-0.2-0.6-0.6-0.6c-0.3,0-0.6,0.2-0.7,0.4h0v-0.4l-0.6,0v0.2
		c0.3,0,0.3,0,0.3,0.2V43c0,0.2,0,0.2-0.3,0.2v0.1c0,0,0.3,0,0.5,0c0.2,0,0.4,0,0.5,0v-0.1c-0.3,0-0.3,0-0.3-0.2v-0.7
		c0-0.4,0.3-0.6,0.6-0.6c0.3,0,0.3,0.2,0.3,0.4V43c0,0.2,0,0.2-0.3,0.2v0.1c0,0,0.3,0,0.5,0c0.2,0,0.4,0,0.5,0v-0.1
		c-0.3,0-0.3,0-0.3-0.2V42.1"/>
</g>
<g>
	<defs>
		<rect id="SVGID_3_" x="40.1" y="30" width="7" height="13.8"/>
	</defs>
	<clipPath id="SVGID_4_">
		<use xlink:href="#SVGID_3_"  overflow="visible"/>
	</clipPath>
	<path clip-path="url(#SVGID_4_)" d="M40.9,31.9c0.2-0.9,0.8-1,1-1c0.3,0,0.4,0.2,0.4,0.4c0,0.6-1,0.6-1.2,0.6H40.9 M41.2,32
		c0.2,0,0.6,0,0.9-0.1c0.4-0.2,0.4-0.5,0.4-0.6c0-0.3-0.2-0.5-0.6-0.5c-0.7,0-1.6,0.6-1.6,1.6c0,0.6,0.4,1.1,0.9,1.1
		c0.9,0,1.4-0.6,1.4-0.7c0,0,0-0.1-0.1-0.1c0,0,0,0-0.1,0.1c-0.5,0.6-1.1,0.6-1.2,0.6c-0.5,0-0.5-0.5-0.5-0.7c0-0.1,0-0.3,0.1-0.6
		H41.2z"/>
	<path clip-path="url(#SVGID_4_)" d="M45.4,32.9c0.5-0.1,0.9-0.4,0.9-0.8c0-0.4-0.4-0.6-1-0.6H44c-0.1,0-0.1,0-0.1,0.1
		c0,0.1,0,0.1,0.1,0.1c0,0,0.1,0,0.2,0c0.1,0,0.1,0,0.1,0.1c0,0,0,0,0,0.1L43.7,34c0,0.1,0,0.2-0.4,0.2c-0.1,0-0.1,0-0.1,0.1
		c0,0,0,0.1,0.1,0.1c0.1,0,0.2,0,0.3,0c0.1,0,0.2,0,0.3,0c0.1,0,0.2,0,0.3,0c0.1,0,0.2,0,0.3,0c0,0,0.1,0,0.1-0.1
		c0-0.1,0-0.1-0.1-0.1c-0.1,0-0.1,0-0.2,0c-0.1,0-0.1,0-0.1-0.1c0,0,0,0,0-0.1l0.3-1h0.6c0.4,0,0.5,0.2,0.5,0.4c0,0.1,0,0.2-0.1,0.3
		c0,0.2-0.1,0.3-0.1,0.3c0,0.3,0.3,0.5,0.6,0.5c0.4,0,0.5-0.4,0.5-0.5c0,0,0-0.1-0.1-0.1c-0.1,0-0.1,0-0.1,0.1
		c-0.1,0.2-0.2,0.4-0.4,0.4c-0.1,0-0.2,0-0.2-0.3c0-0.1,0-0.3,0-0.4c0-0.1,0-0.2,0-0.2c0,0,0-0.2-0.1-0.3
		C45.6,33,45.5,32.9,45.4,32.9 M44.6,31.8c0-0.1,0-0.1,0.1-0.1H45c0.4,0,0.9,0,0.9,0.4c0,0.2-0.1,0.4-0.3,0.6
		c-0.2,0.1-0.4,0.2-0.7,0.2h-0.5L44.6,31.8z"/>
	<path clip-path="url(#SVGID_4_)" d="M42.2,40h0.5c0.1,0,0.2,0,0.2-0.1c0-0.1-0.1-0.1-0.2-0.1h-0.5l0.1-0.7c0-0.1,0.1-0.5,0.1-0.6
		c0.1-0.1,0.2-0.2,0.3-0.2c0,0,0.2,0,0.3,0.1c-0.3,0-0.3,0.2-0.3,0.3c0,0.1,0.1,0.2,0.2,0.2c0.2,0,0.3-0.1,0.3-0.4
		c0-0.3-0.3-0.4-0.5-0.4c-0.2,0-0.6,0.1-0.8,0.7c0,0.1-0.1,0.2-0.2,0.9h-0.4c-0.1,0-0.2,0-0.2,0.1c0,0.1,0.1,0.1,0.2,0.1h0.4
		l-0.4,2.4c-0.1,0.6-0.2,1.1-0.5,1.1c0,0-0.2,0-0.3-0.1c0.3,0,0.3-0.2,0.3-0.3c0-0.1-0.1-0.2-0.2-0.2c-0.2,0-0.3,0.1-0.3,0.4
		c0,0.3,0.3,0.4,0.5,0.4c0.3,0,0.6-0.4,0.7-0.6c0.2-0.4,0.3-1.1,0.3-1.1L42.2,40"/>
	<path clip-path="url(#SVGID_4_)" d="M45.4,41.9c0.5-0.1,0.9-0.4,0.9-0.8c0-0.4-0.4-0.6-1-0.6H44c-0.1,0-0.1,0-0.1,0.1
		c0,0.1,0,0.1,0.1,0.1c0,0,0.1,0,0.2,0c0.1,0,0.1,0,0.1,0.1c0,0,0,0,0,0.1L43.7,43c0,0.1,0,0.2-0.4,0.2c-0.1,0-0.1,0-0.1,0.1
		c0,0,0,0.1,0.1,0.1c0.1,0,0.2,0,0.3,0c0.1,0,0.2,0,0.3,0c0.1,0,0.2,0,0.3,0c0.1,0,0.2,0,0.3,0c0,0,0.1,0,0.1-0.1
		c0-0.1,0-0.1-0.1-0.1c-0.1,0-0.1,0-0.2,0c-0.1,0-0.1,0-0.1-0.1c0,0,0,0,0-0.1l0.3-1h0.6c0.4,0,0.5,0.2,0.5,0.4c0,0.1,0,0.2-0.1,0.3
		c0,0.2-0.1,0.3-0.1,0.3c0,0.3,0.3,0.5,0.6,0.5c0.4,0,0.5-0.4,0.5-0.5c0,0,0-0.1-0.1-0.1c-0.1,0-0.1,0-0.1,0.1
		c-0.1,0.2-0.2,0.4-0.4,0.4c-0.1,0-0.2,0-0.2-0.3c0-0.1,0-0.3,0-0.4c0-0.1,0-0.2,0-0.2c0,0,0-0.2-0.1-0.3
		C45.6,42,45.5,41.9,45.4,41.9 M44.6,40.8c0-0.1,0-0.1,0.1-0.1H45c0.4,0,0.9,0,0.9,0.4c0,0.2-0.1,0.4-0.3,0.6
		c-0.2,0.1-0.4,0.2-0.7,0.2h-0.5L44.6,40.8z"/>
</g>
<g>
	<defs>
		<rect id="SVGID_5_" x="21.1" y="19.7" width="18" height="6"/>
	</defs>
	<clipPath id="SVGID_6_">
		<use xlink:href="#SVGID_5_"  overflow="visible"/>
	</clipPath>
	<path clip-path="url(#SVGID_6_)" d="M21.8,22.8c0.2-0.9,0.8-1,1-1c0.3,0,0.4,0.2,0.4,0.4c0,0.6-1,0.6-1.2,0.6H21.8 M22.1,23
		c0.2,0,0.6,0,0.9-0.1c0.4-0.2,0.4-0.5,0.4-0.6c0-0.3-0.2-0.5-0.6-0.5c-0.7,0-1.6,0.6-1.6,1.6c0,0.6,0.4,1.1,0.9,1.1
		c0.9,0,1.4-0.6,1.4-0.7c0,0,0-0.1-0.1-0.1c0,0,0,0-0.1,0.1c-0.5,0.6-1.1,0.6-1.2,0.6c-0.5,0-0.5-0.5-0.5-0.7c0-0.1,0-0.3,0.1-0.6
		H22.1z"/>
	<path clip-path="url(#SVGID_6_)" d="M27.2,22.4C27.2,22.4,27.2,22.3,27.2,22.4c-0.1-0.1-0.1,0-0.1,0l-0.3,0.3
		c0-0.1-0.3-0.4-0.8-0.4c-1,0-2,0.9-2,1.8c0,0.7,0.5,1.2,1.3,1.2c0.2,0,0.6,0,1-0.4c0.3-0.3,0.4-0.6,0.4-0.7c0-0.1,0-0.1-0.1-0.1
		c-0.1,0-0.1,0-0.1,0.1c-0.2,0.6-0.7,0.9-1.2,0.9c-0.4,0-0.9-0.2-0.9-0.9c0-0.1,0-0.8,0.5-1.3c0.3-0.3,0.7-0.5,1.1-0.5
		c0.5,0,0.8,0.3,0.8,0.8c0,0.1,0,0.1,0,0.2c0,0.1,0.1,0.1,0.1,0.1c0.1,0,0.1,0,0.1-0.1L27.2,22.4"/>
	<path clip-path="url(#SVGID_6_)" d="M33.9,22h0.5c0.1,0,0.2,0,0.2-0.1c0-0.1-0.1-0.1-0.2-0.1h-0.5l0.1-0.7c0-0.1,0.1-0.5,0.1-0.6
		c0.1-0.1,0.2-0.2,0.3-0.2c0,0,0.2,0,0.3,0.1c-0.3,0-0.3,0.2-0.3,0.3c0,0.1,0.1,0.2,0.2,0.2c0.2,0,0.3-0.1,0.3-0.4
		c0-0.3-0.3-0.4-0.5-0.4c-0.2,0-0.6,0.1-0.8,0.7c0,0.1-0.1,0.2-0.2,0.9h-0.4c-0.1,0-0.2,0-0.2,0.1c0,0.1,0.1,0.1,0.2,0.1h0.4
		l-0.4,2.4c-0.1,0.6-0.2,1.1-0.5,1.1c0,0-0.2,0-0.3-0.1c0.3,0,0.3-0.2,0.3-0.3c0-0.1-0.1-0.2-0.2-0.2c-0.2,0-0.3,0.1-0.3,0.4
		c0,0.3,0.3,0.4,0.5,0.4c0.3,0,0.6-0.4,0.7-0.6c0.2-0.4,0.3-1.1,0.3-1.1L33.9,22"/>
	<path clip-path="url(#SVGID_6_)" d="M38.2,22.4C38.2,22.4,38.2,22.3,38.2,22.4c-0.1-0.1-0.1,0-0.1,0l-0.3,0.3
		c0-0.1-0.3-0.4-0.8-0.4c-1,0-2,0.9-2,1.8c0,0.7,0.5,1.2,1.3,1.2c0.2,0,0.6,0,1-0.4c0.3-0.3,0.4-0.6,0.4-0.7c0-0.1,0-0.1-0.1-0.1
		c-0.1,0-0.1,0-0.1,0.1c-0.2,0.6-0.7,0.9-1.2,0.9c-0.4,0-0.9-0.2-0.9-0.9c0-0.1,0-0.8,0.5-1.3c0.3-0.3,0.7-0.5,1.1-0.5
		c0.5,0,0.8,0.3,0.8,0.8c0,0.1,0,0.1,0,0.2c0,0.1,0.1,0.1,0.1,0.1c0.1,0,0.1,0,0.1-0.1L38.2,22.4"/>
</g>
<g>
	<defs>
		<rect id="SVGID_7_" x="21.9" y="46.4" width="16.7" height="6"/>
	</defs>
	<clipPath id="SVGID_8_">
		<use xlink:href="#SVGID_7_"  overflow="visible"/>
	</clipPath>
	<path clip-path="url(#SVGID_8_)" d="M23,49.5c0.2-0.9,0.8-1,1-1c0.3,0,0.4,0.2,0.4,0.4c0,0.6-1,0.6-1.2,0.6H23 M23.3,49.6
		c0.2,0,0.6,0,0.9-0.1c0.4-0.2,0.4-0.5,0.4-0.6c0-0.3-0.2-0.5-0.6-0.5c-0.7,0-1.6,0.6-1.6,1.6c0,0.6,0.4,1.1,0.9,1.1
		c0.9,0,1.4-0.6,1.4-0.7c0,0,0-0.1-0.1-0.1c0,0,0,0-0.1,0.1c-0.5,0.6-1.1,0.6-1.2,0.6c-0.5,0-0.5-0.5-0.5-0.7c0-0.1,0-0.3,0.1-0.6
		H23.3z"/>
	<path clip-path="url(#SVGID_8_)" d="M26.7,49.4c0-0.1,0.1-0.2,0.4-0.2c0.1,0,0.2,0,0.2-0.1c0,0,0-0.1-0.1-0.1c-0.1,0-0.2,0-0.3,0
		c-0.1,0-0.2,0-0.3,0c-0.1,0-0.2,0-0.3,0c-0.1,0-0.2,0-0.3,0c0,0-0.1,0-0.1,0.1c0,0.1,0.1,0.1,0.1,0.1c0,0,0.1,0,0.2,0
		c0.1,0,0.1,0,0.1,0.1c0,0,0,0,0,0.1l-0.5,2.2c0,0.1,0,0.2-0.4,0.2c-0.1,0-0.1,0-0.1,0.1c0,0.1,0,0.1,0.1,0.1h2.1
		c0.1,0,0.1,0,0.1-0.1c0-0.1,0.3-0.9,0.3-0.9c0,0,0-0.1-0.1-0.1c-0.1,0-0.1,0-0.1,0.1c-0.2,0.4-0.3,0.9-1.1,0.9h-0.5
		c-0.1,0-0.1,0-0.1,0c0,0,0,0,0-0.1L26.7,49.4"/>
	<path clip-path="url(#SVGID_8_)" d="M34.7,48.6h0.5c0.1,0,0.2,0,0.2-0.1c0-0.1-0.1-0.1-0.2-0.1h-0.5l0.1-0.7c0-0.1,0.1-0.5,0.1-0.6
		c0.1-0.1,0.2-0.2,0.3-0.2c0,0,0.2,0,0.3,0.1c-0.3,0-0.3,0.2-0.3,0.3c0,0.1,0.1,0.2,0.2,0.2c0.2,0,0.3-0.1,0.3-0.4
		c0-0.3-0.3-0.4-0.5-0.4c-0.2,0-0.6,0.1-0.8,0.7c0,0.1-0.1,0.2-0.2,0.9h-0.4c-0.1,0-0.2,0-0.2,0.1c0,0.1,0.1,0.1,0.2,0.1h0.4
		L33.8,51c-0.1,0.6-0.2,1.1-0.5,1.1c0,0-0.2,0-0.3-0.1c0.3,0,0.3-0.2,0.3-0.3c0-0.1-0.1-0.2-0.2-0.2c-0.2,0-0.3,0.1-0.3,0.4
		c0,0.3,0.3,0.4,0.5,0.4c0.3,0,0.6-0.4,0.7-0.6c0.2-0.4,0.3-1.1,0.3-1.1L34.7,48.6"/>
	<path clip-path="url(#SVGID_8_)" d="M37.2,49.4c0-0.1,0-0.2,0.4-0.2c0.1,0,0.2,0,0.2-0.1c0,0,0-0.1-0.1-0.1c-0.1,0-0.2,0-0.3,0
		c-0.1,0-0.2,0-0.3,0c-0.1,0-0.2,0-0.3,0c-0.1,0-0.2,0-0.3,0c0,0-0.1,0-0.1,0.1c0,0.1,0,0.1,0.1,0.1c0,0,0.1,0,0.2,0
		c0.1,0,0.1,0,0.1,0.1c0,0,0,0,0,0.1l-0.5,2.2c0,0.1,0,0.2-0.4,0.2c-0.1,0-0.1,0-0.1,0.1c0,0.1,0,0.1,0.1,0.1H38
		c0.1,0,0.1,0,0.1-0.1c0-0.1,0.4-0.9,0.4-0.9c0,0,0-0.1-0.1-0.1c0,0-0.1,0-0.1,0.1c-0.2,0.4-0.3,0.9-1.1,0.9h-0.5
		c-0.1,0-0.1,0-0.1,0c0,0,0,0,0-0.1L37.2,49.4"/>
</g>
<g opacity="0.1">
	<rect x="11.2" y="0.6" fill="#B82025" width="53.3" height="72.1"/>
	<g>
		<polyline fill="none" stroke="#000000" stroke-width="0.25" stroke-miterlimit="10" points="64.5,72.2 64.5,72.7 64,72.7 		"/>
		
			<line fill="none" stroke="#000000" stroke-width="0.25" stroke-miterlimit="10" stroke-dasharray="0.9867,0.9867" x1="63" y1="72.7" x2="12.2" y2="72.7"/>
		<polyline fill="none" stroke="#000000" stroke-width="0.25" stroke-miterlimit="10" points="11.7,72.7 11.2,72.7 11.2,72.2 		"/>
		
			<line fill="none" stroke="#000000" stroke-width="0.25" stroke-miterlimit="10" stroke-dasharray="1.0016,1.0016" x1="11.2" y1="71.2" x2="11.2" y2="1.6"/>
		<polyline fill="none" stroke="#000000" stroke-width="0.25" stroke-miterlimit="10" points="11.2,1.1 11.2,0.6 11.7,0.6 		"/>
		
			<line fill="none" stroke="#000000" stroke-width="0.25" stroke-miterlimit="10" stroke-dasharray="0.9867,0.9867" x1="12.7" y1="0.6" x2="63.5" y2="0.6"/>
		<polyline fill="none" stroke="#000000" stroke-width="0.25" stroke-miterlimit="10" points="64,0.6 64.5,0.6 64.5,1.1 		"/>
		
			<line fill="none" stroke="#000000" stroke-width="0.25" stroke-miterlimit="10" stroke-dasharray="1.0016,1.0016" x1="64.5" y1="2.1" x2="64.5" y2="71.7"/>
	</g>
</g>
</svg>
