<?xml version="1.0" encoding="utf-8"?>
<!-- Generator: Adobe Illustrator 18.0.0, SVG Export Plug-In . SVG Version: 6.00 Build 0)  -->
<!DOCTYPE svg PUBLIC "-//W3C//DTD SVG 1.1//EN" "http://www.w3.org/Graphics/SVG/1.1/DTD/svg11.dtd">
<svg version="1.1" xmlns="http://www.w3.org/2000/svg" xmlns:xlink="http://www.w3.org/1999/xlink" x="0px" y="0px"
	 viewBox="0 0 124 28.3" enable-background="new 0 0 124 28.3" xml:space="preserve">
<g id="Layer_1">
	<line fill="none" stroke="#000000" stroke-miterlimit="10" x1="44.4" y1="14.2" x2="1.8" y2="14.2"/>
	<line fill="none" stroke="#000000" stroke-miterlimit="10" x1="44.4" y1="14.2" x2="35" y2="4.7"/>
	<g>
		<line fill="none" stroke="#000000" stroke-miterlimit="10" x1="75.8" y1="14.2" x2="118.5" y2="14.2"/>
		<line fill="none" stroke="#000000" stroke-miterlimit="10" x1="75.8" y1="14.2" x2="85.3" y2="23.6"/>
	</g>
	<g>
		<defs>
			<rect id="SVGID_1_" x="15.6" y="0.9" width="10" height="26.6"/>
		</defs>
		<clipPath id="SVGID_2_">
			<use xlink:href="#SVGID_1_"  overflow="visible"/>
		</clipPath>
		<path clip-path="url(#SVGID_2_)" d="M17.5,3.6c0.5-1.8,1.7-2,2-2c0.6,0,0.9,0.3,0.9,0.8c0,1.2-1.9,1.2-2.4,1.2H17.5 M18,3.9
			c0.3,0,1.2,0,1.8-0.3c0.8-0.4,0.9-1.1,0.9-1.2c0-0.5-0.5-1-1.3-1c-1.3,0-3.1,1.2-3.1,3.2c0,1.2,0.7,2.2,1.9,2.2
			c1.7,0,2.7-1.3,2.7-1.4c0-0.1-0.1-0.2-0.1-0.2c-0.1,0-0.1,0-0.2,0.1c-0.9,1.2-2.2,1.2-2.4,1.2c-0.9,0-1-1-1-1.4
			c0-0.1,0-0.5,0.2-1.2H18z"/>
		<path clip-path="url(#SVGID_2_)" d="M24.1,3.1c0-0.2,0-0.2-0.3-0.2c-0.5,0.5-1.3,0.5-1.6,0.5v0.3c0.2,0,0.8,0,1.2-0.2v4.3
			c0,0.3,0,0.4-0.8,0.4h-0.3v0.3c0.2,0,1.2,0,1.5,0c0.3,0,1.3,0,1.5,0V8.1H25c-0.8,0-0.8-0.1-0.8-0.4V3.1"/>
		<path clip-path="url(#SVGID_2_)" d="M19.9,19.8h1c0.2,0,0.4,0,0.4-0.2c0-0.1-0.1-0.1-0.3-0.1h-1l0.2-1.4c0-0.3,0.2-1.1,0.3-1.2
			c0.1-0.2,0.3-0.4,0.6-0.4c0,0,0.4,0,0.6,0.2c-0.5,0-0.6,0.5-0.6,0.6c0,0.3,0.2,0.4,0.4,0.4c0.3,0,0.7-0.3,0.7-0.7
			c0-0.5-0.5-0.8-1-0.8c-0.4,0-1.2,0.2-1.5,1.4c-0.1,0.2-0.1,0.4-0.4,1.9h-0.8c-0.2,0-0.4,0-0.4,0.2c0,0.1,0.1,0.1,0.3,0.1h0.8
			l-0.9,4.7c-0.2,1.2-0.4,2.2-1,2.2c0,0-0.3,0-0.6-0.2c0.5,0,0.7-0.5,0.7-0.6c0-0.3-0.2-0.4-0.4-0.4c-0.3,0-0.7,0.3-0.7,0.7
			c0,0.5,0.5,0.8,1,0.8c0.7,0,1.1-0.7,1.3-1.2c0.4-0.8,0.7-2.2,0.7-2.3L19.9,19.8"/>
		<path clip-path="url(#SVGID_2_)" d="M24.1,21c0-0.2,0-0.2-0.3-0.2c-0.5,0.5-1.3,0.5-1.6,0.5v0.3c0.2,0,0.8,0,1.2-0.2v4.3
			c0,0.3,0,0.4-0.8,0.4h-0.3v0.3c0.2,0,1.2,0,1.5,0c0.3,0,1.3,0,1.5,0V26H25c-0.8,0-0.8-0.1-0.8-0.4V21"/>
	</g>
	<g>
		<defs>
			<rect id="SVGID_3_" x="94.6" y="1.7" width="10" height="26.6"/>
		</defs>
		<clipPath id="SVGID_4_">
			<use xlink:href="#SVGID_3_"  overflow="visible"/>
		</clipPath>
		<path clip-path="url(#SVGID_4_)" d="M96.5,4.4c0.5-1.8,1.7-2,2-2c0.6,0,0.9,0.3,0.9,0.8c0,1.2-1.9,1.2-2.4,1.2H96.5 M97,4.7
			c0.3,0,1.2,0,1.8-0.3c0.8-0.4,0.9-1.1,0.9-1.2c0-0.5-0.5-1-1.3-1c-1.3,0-3.1,1.2-3.1,3.2c0,1.2,0.7,2.2,1.9,2.2
			c1.7,0,2.7-1.3,2.7-1.4c0-0.1-0.1-0.2-0.1-0.2c-0.1,0-0.1,0-0.2,0.1c-0.9,1.2-2.2,1.2-2.4,1.2c-0.9,0-1-1-1-1.4
			c0-0.1,0-0.5,0.2-1.2H97z"/>
		<path clip-path="url(#SVGID_4_)" d="M104.6,7.7h-0.3c0,0.2-0.1,0.7-0.2,0.8c-0.1,0.1-0.7,0.1-0.8,0.1h-1.5c0.9-0.8,1.2-1,1.7-1.4
			c0.6-0.5,1.2-1,1.2-1.8c0-1-0.9-1.6-2-1.6c-1,0-1.7,0.7-1.7,1.5c0,0.4,0.4,0.5,0.4,0.5c0.2,0,0.4-0.1,0.4-0.4
			c0-0.2-0.1-0.4-0.5-0.4c0.3-0.6,0.8-0.8,1.2-0.8c0.8,0,1.3,0.7,1.3,1.3c0,0.7-0.5,1.3-0.8,1.6l-2,2c-0.1,0.1-0.1,0.1-0.1,0.3h3.5
			L104.6,7.7"/>
		<path clip-path="url(#SVGID_4_)" d="M98.9,20.6h1c0.2,0,0.4,0,0.4-0.2c0-0.1-0.1-0.1-0.3-0.1h-1l0.2-1.4c0-0.3,0.2-1.1,0.3-1.2
			c0.1-0.2,0.3-0.4,0.6-0.4c0,0,0.4,0,0.6,0.2c-0.5,0-0.6,0.5-0.6,0.6c0,0.3,0.2,0.4,0.4,0.4c0.3,0,0.7-0.3,0.7-0.7
			c0-0.5-0.5-0.8-1-0.8c-0.4,0-1.2,0.2-1.5,1.4c-0.1,0.2-0.1,0.4-0.4,1.9h-0.8c-0.2,0-0.4,0-0.4,0.2c0,0.1,0.1,0.1,0.3,0.1h0.8
			l-0.9,4.7c-0.2,1.2-0.4,2.2-1,2.2c0,0-0.3,0-0.6-0.2c0.5,0,0.7-0.5,0.7-0.6c0-0.3-0.2-0.4-0.4-0.4c-0.3,0-0.7,0.3-0.7,0.7
			c0,0.5,0.5,0.8,1,0.8c0.7,0,1.1-0.7,1.3-1.2c0.4-0.8,0.7-2.2,0.7-2.3L98.9,20.6"/>
		<path clip-path="url(#SVGID_4_)" d="M104.6,25.6h-0.3c0,0.2-0.1,0.7-0.2,0.8c-0.1,0.1-0.7,0.1-0.8,0.1h-1.5c0.9-0.8,1.2-1,1.7-1.4
			c0.6-0.5,1.2-1,1.2-1.8c0-1-0.9-1.6-2-1.6c-1,0-1.7,0.7-1.7,1.5c0,0.4,0.4,0.5,0.4,0.5c0.2,0,0.4-0.1,0.4-0.4
			c0-0.2-0.1-0.4-0.5-0.4c0.3-0.6,0.8-0.8,1.2-0.8c0.8,0,1.3,0.7,1.3,1.3c0,0.7-0.5,1.3-0.8,1.6l-2,2c-0.1,0.1-0.1,0.1-0.1,0.3h3.5
			L104.6,25.6"/>
	</g>
</g>
<g id="Components">
	<g id="Phi">
		<defs>
			<rect id="SVGID_5_" x="49.1" y="1.7" width="22" height="25"/>
		</defs>
		<clipPath id="SVGID_6_">
			<use xlink:href="#SVGID_5_"  overflow="visible"/>
		</clipPath>
		<path clip-path="url(#SVGID_6_)" d="M61.5,7.4c5,0.6,6,3.9,6,6.6c0,2.2-0.5,6-6,6.6V7.4 M58.5,20.6c-5.1-0.7-5.7-4.3-5.7-6.6
			c0-1.9,0.4-5.9,5.7-6.6V20.6z M61.5,21.4C67,21,71,17.6,71,14c0-3.7-4.1-7-9.6-7.4v-2c0-1.2,0-1.7,3.4-1.7h1.2V1.7
			c-1.3,0.1-4.6,0.1-6.1,0.1c-1.5,0-4.8,0-6.1-0.1v1.1h1.2c3.4,0,3.4,0.5,3.4,1.7v2c-5.5,0.5-9.3,3.8-9.3,7.4c0,3.7,4,6.9,9.3,7.4v2
			c0,1.2,0,1.7-3.4,1.7h-1.2v1.1c1.3-0.1,4.6-0.1,6.1-0.1c1.5,0,4.8,0,6.1,0.1v-1.1h-1.2c-3.4,0-3.4-0.5-3.4-1.7V21.4z"/>
	</g>
	<g id="Gy" display="none">
		<g display="inline">
			<defs>
				<rect id="SVGID_7_" x="57.6" y="18.2" width="6.6" height="9.1"/>
			</defs>
			<clipPath id="SVGID_8_">
				<use xlink:href="#SVGID_7_"  overflow="visible"/>
			</clipPath>
			<path clip-path="url(#SVGID_8_)" d="M60.9,24c-0.9,0-1.1-1-1.1-1.2c0-0.1,0.1-0.3,0.1-0.5c0.4-1.5,0.5-1.9,0.8-2.5
				c0.6-1,1.2-1.2,1.6-1.2c0.5,0,0.9,0.4,0.9,1.3c0,0.7-0.4,2.2-0.7,2.8C62,23.6,61.4,24,60.9,24 M58,26.4c0,0.2,0,0.2,0,0.2
				c0,0.2,0.1,0.4,0.4,0.4c0.3,0,0.4-0.2,0.5-0.3c0.1-0.1,0.5-1.9,0.8-3.3c0.3,0.5,0.7,0.9,1.3,0.9c1.5,0,3.2-1.8,3.2-3.8
				c0-1.4-0.9-2.1-1.8-2.1c-1.3,0-2.6,1.3-3,2.9L58,26.4z"/>
		</g>
		<text transform="matrix(1 0 0 1 45.3687 17.1296)" display="inline" font-family="'MyriadPro-Regular'" font-size="24">GY</text>
	</g>
	<g id="TF" display="none">
		<text transform="matrix(1 0 0 1 48.7078 17.8735)" display="inline" font-family="'MyriadPro-Regular'" font-size="24">TF</text>
		<g display="inline">
			<defs>
				<rect id="SVGID_9_" x="55.4" y="19.1" width="6.6" height="9.1"/>
			</defs>
			<clipPath id="SVGID_10_">
				<use xlink:href="#SVGID_9_"  overflow="visible"/>
			</clipPath>
			<path clip-path="url(#SVGID_10_)" d="M58.7,24.9c-0.9,0-1.1-1-1.1-1.2c0-0.1,0.1-0.3,0.1-0.5c0.4-1.5,0.5-1.9,0.8-2.5
				c0.6-1,1.2-1.2,1.6-1.2c0.5,0,0.9,0.4,0.9,1.3c0,0.7-0.4,2.2-0.7,2.8C59.9,24.5,59.2,24.9,58.7,24.9 M55.8,27.3
				c0,0.2,0,0.2,0,0.2c0,0.2,0.1,0.4,0.4,0.4c0.3,0,0.4-0.2,0.5-0.3c0.1-0.1,0.5-1.9,0.8-3.3c0.3,0.5,0.7,0.9,1.3,0.9
				c1.5,0,3.2-1.8,3.2-3.8c0-1.4-0.9-2.1-1.8-2.1c-1.3,0-2.6,1.3-3,2.9L55.8,27.3z"/>
		</g>
	</g>
</g>
</svg>
